<svg version="1.2" xmlns="http://www.w3.org/2000/svg" viewBox="0 0 64 64">
  <path fill="#fff" d="m55.4 28.2q1 0.9 1.9 1.7c-3.6 2-10.3-0.2-11.1-2.9-0.7-2.4 1.4-3.6 1.9-5.1q-0.2-0.6-0.5-1.1 3.9 3.7 7.8 7.4z" />
  <path fill="currentColor" d="m3.2 0.4q13 3.5 26.1 7 4.4 0.9 8.8 1.7 1.8 0.3 3.6 0.5c3.1 1.1 12 7 14 9.3 1.9 2.2 3 5.6 4 8.6q0.4 2 0.8 4.1c0.9 1.8 3.1 2.6 3.2 5.3-0.3 0.7-0.7 0.9-1.2 1.1q-0.1 0.7-0.2 1.5c-0.4 1.6-1.3 3.8-2.6 4.6-1.4 0.9-3.4 1.4-5.1 1.3-3-0.1-5.7-1.6-6.8-2.3-2.1-0.7-3.2-1.1-4.2-1.6 1.1 2 2 4 2.5 6.8q0 0.1 0 0.1c-0.2 0.9-0.7 2.5-0.9 3.2-2.1 5.6-4.6 8.3-8.2 12.2-10.7-5.1-19.5-12.9-28.6-19.6-3-2.2-7.2-5.7-8-9.8-0.3-1.3 0.2-1.9 0.5-2.7 0.6-1.9 0.4-3.5 1.1-5.1 2.2-5.1 6-8.1 9.3-12q0-0.1 0-0.1c-4.7-0.2-7.8-9.6-8.1-14.1z" />
</svg>