<svg xmlns="http://www.w3.org/2000/svg" xmlns:xlink="http://www.w3.org/1999/xlink" height="34.571" width="25.064">
   <style>
      <![CDATA[.B{fill-rule:evenodd}.C{stroke-linejoin:round}]]>
   </style>
   <path d="M4.218 32.457q3 1.05 7.7 1.4 4.3.4 7.85.05 3.7-.35 4.2-1.2 1.25-2.05-.1-5.2-1.25-2.85-3.65-4.6-5.55-4.15-13.55-1.9-3.6 1-5 2.9-1.45 1.95-1.1 5.55.2 1.8 3.65 3" fill="url(#A)" class="B" />
   <path d="M4.218 32.457q-3.45-1.2-3.65-3-.35-3.6 1.1-5.55 1.4-1.9 5-2.9 8-2.25 13.55 1.9 2.4 1.75 3.65 4.6 1.35 3.15.1 5.2-.5.85-4.2 1.2-3.55.35-7.85-.05-4.7-.35-7.7-1.4z" fill="none" stroke="#060" class="C" />
   <path d="M18.368 21.957q-2.35-1.4-5.6-1.4l-3.25-.2-1.45.2q-.95 5.6 2.35 12.45 4.2-7.3 7.95-11.05" fill="url(#B)" class="B" />
   <path d="M18.368 21.957q-3.75 3.75-7.95 11.05-3.3-6.85-2.35-12.45l1.45-.2 3.25.2q3.25 0 5.6 1.4z" fill="none" stroke="#060" class="C" />
   <path d="M12.368 22.607q3.4.45 6.25-2.6 2.6-2.8 3.5-7.05.95-4.4-.6-7.7-1.7-3.75-6.1-4.5-4.55-.8-7.35 2.3-2.55 2.7-2.9 7.3-.35 4.5 1.5 8 2 3.8 5.7 4.25" fill="url(#C)" class="B" />
   <path d="M12.368 22.607q-3.7-.45-5.7-4.25-1.85-3.5-1.5-8 .35-4.6 2.9-7.3 2.8-3.1 7.35-2.3 4.4.75 6.1 4.5 1.55 3.3.6 7.7-.9 4.25-3.5 7.05-2.85 3.05-6.25 2.6z" fill="none" stroke="#960" class="C" />
   <g class="B">
      <path d="M22.018 9.257q-2.3-5.1-8.25-2.85-5.1 1.95-7.45-.4 4.05 5.2 8.25 2.8 3.25-1.85 7.45.45" fill="url(#D)" />
      <path d="M22.518 10.357q-.05-8.55-7.5-9.75-6.1-.9-8.9 5.65 1.1 1.35 3.75 1.85 1.4.3 2.6-.25 1.85-.85 3.95-1.15 2.9-.4 4.7 1.3 1.35 1.2 1.4 2.35" fill="url(#E)" />
   </g>
   <path d="M22.518 10.357q-.05-1.15-1.4-2.35-1.8-1.7-4.7-1.3-2.1.3-3.95 1.15-1.2.55-2.6.25-2.65-.5-3.75-1.85 2.8-6.55 8.9-5.65 7.45 1.2 7.5 9.75z" fill="none" stroke="#960" class="C" />
   <path d="M10.818 7.757l2.5-1.05q1.65-.8 3.55-.8 4.25 0 5.15 3.75.5-3.3-2.8-4.7-3.6-1.55-6.15-.4l-1.75 1.05q-.95.65-1.45.75-1.4.35-2.1 0l-.4-.3-.3-.15q0-.75-.4-.1-.4.7-.05 1 .6.5 1.9.8l2.3.15" fill="url(#F)" class="B" />
   <defs>
      <radialGradient cx="0" cy="0" gradientTransform="matrix(0.0208,0,0,0.0208,11.718027,21.957457)" id="A" r="819.2" spreadMethod="pad" xlink:href="#G">
         <stop offset="0" stop-color="#cfc" />
         <stop offset="1" stop-color="#090" />
      </radialGradient>
      <linearGradient gradientTransform="matrix(-7e-4,0.0077,0.0063,5e-4,13.318027,27.107457)" id="B" spreadMethod="pad" x1="-819.2" x2="819.2" xlink:href="#G">
         <stop offset="0" stop-color="#9cf" />
         <stop offset=".094" stop-color="#9cf" />
         <stop offset=".396" stop-color="#fff" />
         <stop offset="1" stop-color="#cff" />
      </linearGradient>
      <radialGradient cx="0" cy="0" gradientTransform="matrix(0.0277,0,0,0.0277,12.468027,2.257457)" id="C" r="819.2" spreadMethod="pad" xlink:href="#G">
         <stop offset="0" stop-color="#ff9" />
         <stop offset=".243" stop-color="#fc6" />
         <stop offset=".714" stop-color="#f93" />
         <stop offset="1" stop-color="#960" />
      </radialGradient>
      <linearGradient gradientTransform="matrix(0,0.0022,0.0096,0,14.168027,7.657457)" id="D" spreadMethod="pad" x1="-819.2" x2="819.2" xlink:href="#G">
         <stop offset="0" stop-color="#f93" />
         <stop offset=".486" stop-color="#f93" />
         <stop offset="1" stop-color="#fc6" />
      </linearGradient>
      <radialGradient cx="0" cy="0" gradientTransform="matrix(0.016,0,0,0.016,13.068027,1.307457)" id="E" r="819.2" spreadMethod="pad" xlink:href="#G">
         <stop offset="0" stop-color="#f0ddbd" />
         <stop offset=".38" stop-color="#d8a650" />
         <stop offset=".82" stop-color="#960" />
         <stop offset="1" stop-color="#926821" />
      </radialGradient>
      <linearGradient gradientTransform="matrix(-0.0075,0.0035,0.0026,0.0056,14.468027,6.057457)" id="F" spreadMethod="pad" x1="-819.2" x2="819.2" xlink:href="#G">
         <stop offset="0" stop-color="#960" />
         <stop offset=".341" stop-color="#f0ddbd" />
         <stop offset=".678" stop-color="#d8a650" />
         <stop offset="1" stop-color="#960" />
      </linearGradient>
      <linearGradient id="G" gradientUnits="userSpaceOnUse" />
   </defs>
</svg>