{
    "asset" : {
        "generator" : "Khronos glTF Blender I/O v1.7.33",
        "version" : "2.0"
    },
    "scene" : 0,
    "scenes" : [
        {
            "name" : "Scene",
            "nodes" : [
                0
            ]
        }
    ],
    "nodes" : [
        {
            "mesh" : 0,
            "name" : "BSurfaceMesh"
        }
    ],
    "materials" : [
        {
            "doubleSided" : true,
            "name" : "Material",
            "pbrMetallicRoughness" : {
                "baseColorFactor" : [
                    0,
                    0,
                    0,
                    1
                ],
                "metallicFactor" : 0
            }
        }
    ],
    "meshes" : [
        {
            "name" : "BSurfaceMesh",
            "primitives" : [
                {
                    "attributes" : {
                        "POSITION" : 0,
                        "NORMAL" : 1
                    },
                    "indices" : 2,
                    "material" : 0
                }
            ]
        }
    ],
    "accessors" : [
        {
            "bufferView" : 0,
            "componentType" : 5126,
            "count" : 46532,
            "max" : [
                0.947877049446106,
                0.9819778800010681,
                0.923917293548584
            ],
            "min" : [
                -0.5809435248374939,
                -0.5523334741592407,
                -0.923917293548584
            ],
            "type" : "VEC3"
        },
        {
            "bufferView" : 1,
            "componentType" : 5126,
            "count" : 46532,
            "type" : "VEC3"
        },
        {
            "bufferView" : 2,
            "componentType" : 5123,
            "count" : 69816,
            "type" : "SCALAR"
        }
    ],
    "bufferViews" : [
        {
            "buffer" : 0,
            "byteLength" : 558384,
            "byteOffset" : 0
        },
        {
            "buffer" : 0,
            "byteLength" : 558384,
            "byteOffset" : 558384
        },
        {
            "buffer" : 0,
            "byteLength" : 139632,
            "byteOffset" : 1116768
        }
    ],
    "buffers" : [
        {
            "byteLength" : 1256400,
            "uri" : "data:application/octet-stream;base64,"
        }
    ]
}
